<svg width="142" height="31" viewBox="0 0 142 31" fill="none" xmlns="http://www.w3.org/2000/svg">
<path d="M28.9102 17.0138C28.9102 21.5574 26.5783 24.0516 20.3846 24.0516H0.736904V0.0662994H19.7664C25.7688 0.0662994 28.0255 2.5522 28.0255 6.28104C28.0255 8.89718 26.7257 10.3668 24.6223 10.98V11.1898C27.01 11.7526 28.9102 13.1844 28.9102 17.0138ZM19.5673 7.49479C19.5673 6.14279 18.8222 5.54613 17.2849 5.54613H8.52632V9.43467H17.2849C18.8175 9.43467 19.5673 8.83852 19.5673 7.49479ZM20.3502 16.4138C20.3502 14.9228 19.6562 14.1964 17.7593 14.1964H8.52632V18.6222H17.7593C19.6523 18.6222 20.3502 17.9002 20.3502 16.4138ZM55.6158 0.0662994H63.2979V4.04141H55.6158V0.0662994ZM55.6822 6.15339H63.2306V24.0516H55.6822V6.15339ZM81.7703 8.10825V0.0662994H89.3188V24.0516H81.9081V22.1218H81.7073C80.092 23.8113 77.7786 24.7886 74.7518 24.7886C68.4221 24.7886 64.3645 21.451 64.3645 15.2391C64.3645 9.02354 68.4221 5.6898 74.7518 5.6898C77.7786 5.6898 79.9956 6.64643 81.5702 8.10825H81.7703ZM82.0126 15.2391C82.0126 12.6511 80.3841 10.9781 77.0272 10.9781C73.7623 10.9781 72.2135 12.5392 72.2135 15.2391C72.2135 17.9392 73.7623 19.5005 77.0272 19.5005C80.3841 19.5005 82.0126 17.8278 82.0126 15.2391ZM141.144 16.8626H123.851C124.19 19.1279 125.684 20.1881 128.599 20.1881C131.922 20.1881 132.69 18.863 132.891 18.5025H140.982C140.777 21.5422 138.347 24.7886 128.599 24.7886C119.998 24.7886 115.953 21.2106 115.953 15.0985C115.953 8.99873 119.998 5.41253 128.599 5.41253C137.199 5.41253 141.245 8.99899 141.245 15.1029C141.245 15.5706 141.212 16.3533 141.144 16.8626ZM124.01 12.6054H133.187C132.644 10.8373 131.174 10.013 128.599 10.013C126.022 10.013 124.553 10.8373 124.01 12.6054ZM114.973 6.15339V22.9456C114.973 27.6251 113.416 30.54 102.915 30.54C92.7488 30.54 91.0997 27.2936 90.8155 24.0469H99.0241C99.153 24.8751 99.6709 25.9395 102.915 25.9395C106.811 25.9395 107.424 24.8751 107.424 22.9456V20.2253H107.224C105.792 21.7287 103.42 22.5936 100.498 22.5936C94.3187 22.5936 90.3483 19.7573 90.3483 14.1421C90.3483 8.52223 94.3187 5.6898 100.498 5.6898C103.42 5.6898 105.888 6.55935 107.362 8.20774H107.562V6.15339H114.973ZM107.574 14.1421C107.574 12.1459 106.092 10.8125 102.798 10.8125C99.6834 10.8125 98.1974 12.0712 98.1974 14.1421C98.1974 16.2125 99.6834 17.4717 102.798 17.4717C106.092 17.4717 107.574 16.1381 107.574 14.1421ZM54.5476 13.0434C52.0367 8.42015 47.0451 5.46008 41.7465 5.48798C36.4477 5.46033 31.4569 8.42041 28.9462 13.0434L35.6727 16.6663C38.3363 11.8872 45.1552 11.8846 47.8212 16.6663L54.5476 13.0434Z" fill="#FFFEFF"/>
</svg>
